<!DOCTYPE svg PUBLIC "-//W3C//DTD SVG 1.1//EN" "http://www.w3.org/Graphics/SVG/1.1/DTD/svg11.dtd">
<!-- Uploaded to: SVG Repo, www.svgrepo.com, Transformed by: SVG Repo Mixer Tools -->
<svg fill="#000000" height="110px" width="110px" version="1.1" id="Layer_1" xmlns="http://www.w3.org/2000/svg" xmlns:xlink="http://www.w3.org/1999/xlink" viewBox="-51.2 -51.2 614.40 614.40" xml:space="preserve">
<g id="SVGRepo_bgCarrier" stroke-width="0"/>
<g id="SVGRepo_tracerCarrier" stroke-linecap="round" stroke-linejoin="round"/>
<g id="SVGRepo_iconCarrier"> <g> <g> <path d="M473.316,348.14c-4.231-38.067-36.602-67.766-75.779-67.766c-11.922,0-23.258,2.785-33.377,7.747l-33.935-58.78 c26.062-7.278,45.243-31.219,45.243-59.573c0-25.474-15.869-48.016-38.684-57.323c-4.231-38.067-36.602-67.766-75.779-67.766 c-35.046,0-65.082,24.031-73.738,56.827c-29.014,6.928-50.731,33.173-50.731,64.165c0,29.324,19.241,54.228,45.757,62.779 l-32.486,56.267c-7.933-2.803-16.456-4.342-25.335-4.342c-35.047,0-65.082,24.031-73.738,56.829 C21.717,344.129,0,370.373,0,401.367c0,36.368,29.587,65.955,65.955,65.955h111.121c31.325,0,57.268-23.41,61.297-53.651h35.863 c5.782,30.506,32.625,53.651,64.786,53.651h111.121c34.109,0,61.858-27.749,61.858-61.858 C512,379.99,496.131,357.447,473.316,348.14z M170.667,165.671c0-17.359,14.122-31.631,31.482-31.816l15.76-0.166l1.085-15.723 c1.516-21.956,19.968-39.153,42.009-39.153c23.222,0,42.115,18.892,42.115,42.115c0,1.071-0.041,2.158-0.122,3.231l-1.197,15.889 l15.77,2.284c13.548,1.96,23.764,13.757,23.764,27.436c0,15.288-12.437,27.724-27.724,27.724H202.488 C184.941,197.492,170.667,183.218,170.667,165.671z M177.076,433.187H65.955v0c-17.547,0-31.821-14.273-31.821-31.82 c0-17.359,14.122-31.631,31.481-31.815l15.762-0.166l1.085-15.724c1.516-21.956,19.968-39.154,42.009-39.154 c23.222,0,42.115,18.892,42.115,42.115c0,1.071-0.041,2.158-0.122,3.231l-1.197,15.889l15.77,2.283 c13.548,1.962,23.764,13.757,23.764,27.436C204.8,420.751,192.363,433.187,177.076,433.187z M276.813,379.535h-43.662 c-6.575-14.078-18.315-25.445-32.902-31.396c-1.944-17.497-9.845-33.213-21.608-45.104l41.23-71.411h72.258l45.212,78.308 c-6.21,7.972-10.886,17.206-13.542,27.27C301.934,342.421,284.22,358.612,276.813,379.535z M450.142,433.187H339.021v0 c-17.547,0-31.821-14.275-31.821-31.821c0-17.359,14.122-31.631,31.481-31.815l15.762-0.166l1.085-15.724 c1.516-21.956,19.968-39.154,42.009-39.154c23.222,0,42.115,18.892,42.115,42.115c0,1.071-0.041,2.158-0.122,3.231l-1.197,15.889 l15.77,2.284c13.547,1.963,23.764,13.758,23.764,27.438C477.867,420.751,465.43,433.187,450.142,433.187z"/> </g> </g> </g>
</svg>