<?xml version="1.0" encoding="UTF-8"?>
<svg version="1.1" xmlns="http://www.w3.org/2000/svg" width="500" height="500">
<path d="M0 0 C1.40558178 1.19407519 2.77974501 2.42584842 4.125 3.6875 C4.94355469 4.45320313 5.76210938 5.21890625 6.60546875 6.0078125 C18.05817977 17.61646058 25.19716833 33.05370377 25.3125 49.5 C25.26587754 50.89645383 25.21000087 52.29285603 25.125 53.6875 C20.24783698 54.95846493 15.44929344 54.81405874 10.44921875 54.78515625 C9.5240596 54.7837413 8.59890045 54.78232635 7.64570618 54.78086853 C4.70127073 54.77528715 1.75691233 54.76273805 -1.1875 54.75 C-3.18814994 54.74498259 -5.18880108 54.74042011 -7.18945312 54.73632812 C-12.08466494 54.72532381 -16.97981942 54.70807198 -21.875 54.6875 C-23.32834097 51.89571817 -24.12007114 49.67673948 -24.5625 46.5625 C-26.00585733 39.63209378 -30.318991 34.1779703 -35.3125 29.3125 C-46.38932377 22.28817273 -57.85469632 20.97474284 -70.77734375 23.18359375 C-72.94419656 23.85764111 -74.8587775 24.65010751 -76.875 25.6875 C-77.57882813 26.0278125 -78.28265625 26.368125 -79.0078125 26.71875 C-84.76959336 29.86540523 -88.38721113 34.26203885 -90.48828125 40.51171875 C-91.85035299 48.17509207 -92.38563207 57.98013154 -87.875 64.6875 C-77.63457281 77.02477656 -60.04705905 81.96130904 -45.34317017 86.70227051 C-17.34988014 95.76990774 11.07721659 105.0424175 26 132.375 C30.88051204 142.69088507 33.08132253 154.27993839 32.125 165.6875 C32.0321875 166.83734375 31.939375 167.9871875 31.84375 169.171875 C29.72828532 189.1060614 20.63589195 204.74179137 5.625 217.8125 C-16.11748848 234.41341083 -45.67603296 237.17776806 -72.0546875 234.19140625 C-93.72591373 231.15212098 -116.77322093 222.17580139 -130.54296875 204.375 C-141.14949375 189.82890858 -145.875 174.7120532 -145.875 156.6875 C-130.035 156.6875 -114.195 156.6875 -97.875 156.6875 C-96.885 161.3075 -95.895 165.9275 -94.875 170.6875 C-93.29860102 174.10303112 -91.99095309 176.69857173 -89.875 179.6875 C-89.13636719 180.73357422 -89.13636719 180.73357422 -88.3828125 181.80078125 C-82.77520584 188.92431985 -74.55559879 193.89164429 -65.5703125 195.4375 C-52.56005108 196.64424889 -39.5479774 196.63574594 -28.375 188.875 C-20.91720208 182.53194661 -17.74707535 175.53422421 -16.875 165.6875 C-17.80389872 156.37763866 -20.55852868 148.63099022 -27.375 142.125 C-39.20616925 132.59309043 -54.72882649 128.69942064 -68.87475586 123.87280273 C-86.48982302 117.84206115 -104.3572248 111.69878752 -118.875 99.6875 C-119.59816406 99.12546875 -120.32132813 98.5634375 -121.06640625 97.984375 C-131.59078567 89.43706116 -137.06824877 77.784675 -139.875 64.6875 C-141.41878888 44.7159527 -139.64517012 27.19163639 -126.84375 11.140625 C-96.60177533 -23.99969768 -36.80480044 -26.95562849 0 0 Z " fill="#FCFCFC" transform="translate(306.875,137.3125)"/>
<path d="M0 0 C45.47159404 -0.60628792 45.47159404 -0.60628792 63 12 C64.00353516 12.71929687 64.00353516 12.71929687 65.02734375 13.453125 C75.43043709 21.67975543 80.41023917 34.09379164 82 47 C83.24484304 62.87468471 81.53111808 78.5192032 78.1328125 94.02734375 C76.45654125 101.88985413 75.66683575 109.34182073 75.5625 117.375 C75.54034424 118.27847168 75.51818848 119.18194336 75.49536133 120.11279297 C75.51683339 126.79857908 77.12615312 131.99425194 80 138 C80.33515625 138.7319458 80.6703125 139.4638916 81.015625 140.21801758 C82.30855894 142.55857433 83.56123213 142.97757644 86 144 C86.69996094 144.39058594 87.39992188 144.78117188 88.12109375 145.18359375 C95.3377345 149.09007213 100.43296621 150.0229922 109 152 C109 164.21 109 176.42 109 189 C100.3125 191.375 100.3125 191.375 97.6027832 192.11083984 C91.65246424 193.65846313 91.65246424 193.65846313 86 196 C85.67 196.99 85.34 197.98 85 199 C84.236875 199.680625 83.47375 200.36125 82.6875 201.0625 C76.76301833 207.53809625 75.29569969 215.38622046 75.4375 223.9375 C75.44338135 224.86191895 75.4492627 225.78633789 75.45532227 226.73876953 C75.72022619 237.04021034 77.73016203 247.0210437 79.80859375 257.0859375 C84.12467134 278.09435478 84.51968576 301.22920562 73 320 C65.07407936 331.94088831 50.78793161 338.20242584 37.17578125 341.09375 C29.73714995 342.40077366 22.33794537 342.21524944 14.8125 342.125 C9.924375 342.08375 5.03625 342.0425 0 342 C0 329.46 0 316.92 0 304 C3.42375 303.938125 6.8475 303.87625 10.375 303.8125 C22.03094915 303.51445199 22.03094915 303.51445199 32 298 C33.82250869 295.69082687 34.81111826 293.73959706 36 291 C36.33 290.34 36.66 289.68 37 289 C38.40355357 274.20228139 36.49536176 260.08922311 33.19140625 245.69921875 C28.84781804 226.33171138 29.44936111 205.22276528 40 188 C45.5102752 179.65586899 55.16296749 175.16841156 64 171 C61.46322212 169.30881475 59.19664045 168.17313433 56.4375 166.9375 C45.48329234 161.4284597 38.53976332 153.3494083 34 142 C28.99837981 125.35174993 30.4332135 107.88736611 34.0234375 91.09375 C36.01218726 81.75139487 37.40789115 72.76197261 37.5 63.1875 C37.51820801 62.28692871 37.53641602 61.38635742 37.55517578 60.45849609 C37.48923273 53.28416147 35.76206302 47.76206302 30.625 42.625 C24.36661984 38.75076466 17.78770631 38.43944953 10.625 37.875 C7.11875 37.58625 3.6125 37.2975 0 37 C0 24.79 0 12.58 0 0 Z " fill="#FCFCFC" transform="translate(357,86)"/>
<path d="M0 0 C1.39061846 0.01006283 2.78124408 0.01918277 4.171875 0.02734375 C7.53143819 0.05067405 10.89062175 0.0834077 14.25 0.125 C14.41745546 5.07272024 14.57803118 10.0205972 14.73217773 14.96875 C14.78561424 16.6527307 14.84094488 18.33665239 14.89819336 20.02050781 C14.98005852 22.43802158 15.05515472 24.85566432 15.12890625 27.2734375 C15.15594131 28.0286972 15.18297638 28.78395691 15.21083069 29.56210327 C15.36387171 34.89725659 15.36387171 34.89725659 14.25 37.125 C12.25976562 37.47216797 12.25976562 37.47216797 9.65625 37.6171875 C8.7075 37.68292969 7.75875 37.74867187 6.78125 37.81640625 C4.79201516 37.93688826 2.80242472 38.05166301 0.8125 38.16015625 C-6.77041498 38.70033702 -13.46732361 40.09483718 -19.1875 45.375 C-26.88714958 58.92638326 -22.37237056 78.75425253 -19.19921875 93.18359375 C-17.5412532 101.06547448 -17.30306554 108.75983699 -17.375 116.8125 C-17.36339844 118.12283203 -17.35179688 119.43316406 -17.33984375 120.78320312 C-17.38217827 134.92998957 -20.08327096 148.27233858 -30 158.9375 C-35.59506744 164.09836043 -42.36855095 168.18251341 -49.75 170.125 C-49.75 170.785 -49.75 171.445 -49.75 172.125 C-48.96625 172.33125 -48.1825 172.5375 -47.375 172.75 C-35.841343 177.12483541 -27.93562902 184.56124787 -21.75 195.125 C-18.01339198 204.14424047 -17.10653327 212.69258996 -17.25 222.375 C-17.25845947 223.66607666 -17.26691895 224.95715332 -17.27563477 226.28735352 C-17.48711886 237.98063164 -19.09576968 249.25436341 -21.29345703 260.7199707 C-23.33030576 271.44991553 -25.27386386 285.22014067 -19.75 295.125 C-15.83494705 300.01881618 -11.30820346 302.67469069 -5.12060547 303.45776367 C-2.18173191 303.64122427 0.74350504 303.74494007 3.6875 303.8125 C7.173125 303.915625 10.65875 304.01875 14.25 304.125 C14.25 316.665 14.25 329.205 14.25 342.125 C9.444375 342.186875 4.63875 342.24875 -0.3125 342.3125 C-1.79435791 342.33981201 -3.27621582 342.36712402 -4.80297852 342.39526367 C-17.20554798 342.47135306 -29.71281555 341.2677777 -40.75 335.125 C-41.64332031 334.64289063 -42.53664062 334.16078125 -43.45703125 333.6640625 C-55.64306929 326.56248629 -62.09626662 316.3053733 -66 303.0625 C-70.86055728 283.65255162 -67.12916903 263.59079561 -63.18408203 244.36743164 C-61.90557464 237.88816755 -61.38432924 231.66293994 -61.375 225.0625 C-61.35050781 224.14662109 -61.32601562 223.23074219 -61.30078125 222.28710938 C-61.26259197 213.29353494 -63.80330746 205.20182152 -70.08203125 198.58203125 C-77.02923401 192.51339746 -85.92247995 191.47900535 -94.75 189.125 C-94.75 176.915 -94.75 164.705 -94.75 152.125 C-86.335 150.145 -86.335 150.145 -77.75 148.125 C-70.34912814 144.02234277 -65.78354817 140.11099192 -62.75 132.125 C-59.36951929 119.46986708 -62.14892828 104.80843578 -64.23730469 92.17773438 C-72.3924197 42.65286471 -72.3924197 42.65286471 -59.30078125 23.2265625 C-58.53314453 22.18628906 -58.53314453 22.18628906 -57.75 21.125 C-57.31042969 20.49335937 -56.87085938 19.86171875 -56.41796875 19.2109375 C-47.784 7.91462104 -32.74154806 2.63318357 -19.18139648 0.50219727 C-12.79816767 -0.19948103 -6.41219906 -0.08185129 0 0 Z " fill="#FCFCFC" transform="translate(128.75,85.875)"/>
<path d="M0 0 C0.66 0.33 1.32 0.66 2 1 C0.625 2.5 0.625 2.5 -1 4 C-1.66 4 -2.32 4 -3 4 C-3.20625 4.556875 -3.4125 5.11375 -3.625 5.6875 C-5.55000774 8.92501302 -8.03850902 10.68231141 -11 13 C-8.72126867 7.61390776 -4.84467788 3.22978525 0 0 Z " fill="#E5E2D9" transform="translate(81,97)"/>
<path d="M0 0 C0.33 0 0.66 0 1 0 C2.38766322 6.05525768 1.49118146 9.32010626 -1 15 C-1.33 15 -1.66 15 -2 15 C-1.85816304 13.24967156 -1.71136571 11.49974466 -1.5625 9.75 C-1.48128906 8.77546875 -1.40007812 7.8009375 -1.31640625 6.796875 C-1.04925416 4.43538247 -0.64628032 2.28098935 0 0 Z " fill="#DED9D9" transform="translate(394,162)"/>
<path d="M0 0 C0.99 0.66 1.98 1.32 3 2 C0.36 3.98 -2.28 5.96 -5 8 C-3.47524303 4.95048605 -2.07114674 2.63600494 0 0 Z " fill="#DFD9D8" transform="translate(182,146)"/>
</svg>
